<svg width="30" height="18" viewBox="0 0 30 18" fill="none" xmlns="http://www.w3.org/2000/svg">
<rect x="0.5" y="0.5" width="29" height="17" rx="2.5" stroke="white" stroke-opacity="0.7" stroke-linejoin="round"/>
<path d="M13.0039 8.03125V9.19727H8.47461V8.03125H13.0039ZM8.83789 4.46875V13H7.36719V4.46875H8.83789ZM14.1348 4.46875V13H12.6699V4.46875H14.1348ZM18.3652 13H16.543L16.5547 11.834H18.3652C18.8926 11.834 19.334 11.7188 19.6895 11.4883C20.0488 11.2578 20.3184 10.9277 20.498 10.498C20.6816 10.0684 20.7734 9.55664 20.7734 8.96289V8.5C20.7734 8.03906 20.7207 7.63086 20.6152 7.27539C20.5137 6.91992 20.3613 6.62109 20.1582 6.37891C19.959 6.13672 19.7129 5.95312 19.4199 5.82812C19.1309 5.70312 18.7969 5.64062 18.418 5.64062H16.5078V4.46875H18.418C18.9844 4.46875 19.502 4.56445 19.9707 4.75586C20.4395 4.94336 20.8438 5.21484 21.1836 5.57031C21.5273 5.92578 21.791 6.35156 21.9746 6.84766C22.1582 7.34375 22.25 7.89844 22.25 8.51172V8.96289C22.25 9.57617 22.1582 10.1309 21.9746 10.627C21.791 11.123 21.5273 11.5488 21.1836 11.9043C20.8398 12.2559 20.4297 12.5273 19.9531 12.7188C19.4805 12.9062 18.9512 13 18.3652 13ZM17.3574 4.46875V13H15.8867V4.46875H17.3574Z" fill="white"/>
</svg>
