<svg width="458" height="408" viewBox="0 0 458 408" fill="none" xmlns="http://www.w3.org/2000/svg">
<path opacity="0.6" d="M230.171 145.534L445.791 267.569C451.184 270.621 451.209 278.38 445.837 281.467L230.217 405.373C227.723 406.807 224.651 406.791 222.172 405.33L11.7924 281.424C6.51868 278.318 6.54401 270.682 11.8382 267.611L222.217 145.576C224.673 144.151 227.7 144.135 230.171 145.534Z" fill="url(#paint0_linear_8_1532)"/>
<ellipse cx="225.514" cy="146.898" rx="20.123" ry="10.0615" fill="#1E1C26"/>
<path d="M240.003 176.009C240.003 180.677 233.516 183.522 225.514 183.522C217.512 183.522 211.026 180.677 211.026 176.009C211.026 171.342 217.512 166.619 225.514 166.619C233.516 166.619 240.003 171.342 240.003 176.009Z" fill="#1E1C26"/>
<path d="M245.637 147.302C245.637 156.558 240.003 177.084 240.003 177.084H211.026C211.026 177.084 205.391 157.766 205.391 147.302C205.391 136.838 245.637 138.047 245.637 147.302Z" fill="#1E1C26"/>
<ellipse cx="225.514" cy="146.898" rx="16.9033" ry="8.45167" fill="#141319"/>
<path d="M241.487 46.8656C234.462 47.3712 221.986 53.1929 221.572 58.5853C225.213 68.7696 239.798 70.3578 244.068 70.152C249.094 69.9098 265.791 69.4797 265.539 59.1617C265.401 53.4891 253.701 45.9865 241.487 46.8656Z" fill="#141319"/>
<path d="M210.501 100.113C217.407 98.7293 229.054 91.3877 228.787 85.986C223.897 76.3393 209.228 76.5943 205.018 77.3345C200.062 78.2057 183.551 80.7282 185.096 90.9329C185.945 96.5433 198.494 102.518 210.501 100.113Z" fill="#141319"/>
<path fill-rule="evenodd" clip-rule="evenodd" d="M225.514 37.5386C226.343 37.5386 227.014 38.2102 227.014 39.0386V59.1406C227.014 59.1538 227.014 59.1669 227.014 59.1801V59.3403L235.102 53.5173C235.774 53.0332 236.711 53.1858 237.195 53.8581C237.679 54.5304 237.527 55.4678 236.855 55.9519L227.014 63.037V83.6884C227.014 83.7031 227.014 83.7177 227.014 83.7323V87.5631C227.425 87.1824 227.861 86.8111 228.307 86.4584C229.325 85.6549 230.44 84.9175 231.515 84.3733C232.546 83.8508 233.708 83.4191 234.771 83.4191C235.599 83.4191 236.271 84.0907 236.271 84.9191C236.271 85.7476 235.599 86.4191 234.771 86.4191C234.424 86.4191 233.775 86.5911 232.87 87.0496C232.008 87.4865 231.06 88.1073 230.166 88.8131C229.272 89.5193 228.469 90.2801 227.882 90.9784C227.326 91.6392 227.085 92.1003 227.014 92.3283V94.1195C228.851 94.6906 230.636 96.3014 230.636 99.0051C230.636 99.8335 229.965 100.505 229.136 100.505C228.308 100.505 227.636 99.8335 227.636 99.0051C227.636 98.3517 227.385 97.8408 227.014 97.4841V147.3C227.014 148.129 226.343 148.8 225.514 148.8C224.686 148.8 224.014 148.129 224.014 147.3V95.3832V95.383V92.1917C224.014 92.1741 224.014 92.1564 224.014 92.1388V89.9391C222.328 89.8918 220.536 90.4938 218.538 91.4927C217.797 91.8632 216.896 91.5629 216.526 90.8219C216.155 90.0809 216.456 89.1799 217.197 88.8094C219.3 87.7575 221.604 86.892 224.014 86.9383V84.1659L217.827 74.8847C217.367 74.1954 217.553 73.2641 218.243 72.8046C218.932 72.3451 219.863 72.5313 220.323 73.2206L224.014 78.7576V59.6345L218.651 51.9726C218.176 51.294 218.341 50.3587 219.019 49.8836C219.698 49.4085 220.633 49.5736 221.108 50.2523L224.014 54.4031V39.0386C224.014 38.2102 224.686 37.5386 225.514 37.5386Z" fill="#070609"/>
<path d="M204.547 108.619C210.934 105.649 220.525 95.7722 218.995 90.5851C211.971 82.3605 197.775 86.0608 193.857 87.7713C189.245 89.7845 173.792 96.1221 177.695 105.677C179.841 110.93 193.444 113.783 204.547 108.619Z" fill="#1E1C26"/>
<path d="M223.904 17.2107C220.684 24.051 220.685 36.5272 225.514 39.7484C237.185 43.773 245.597 26.5471 247.649 22.4426C250.064 17.6116 250.869 1.74345 246.844 0.306126C241.108 -1.74201 228.815 6.77655 223.904 17.2107Z" fill="#1E1C26"/>
<path d="M251.936 37.8965C244.751 40.2494 234.202 48.5125 235.173 54.2355C241.613 63.8945 260.033 60.0825 264.426 58.7581C269.598 57.1992 281.692 46.8948 279.975 42.9807C277.528 37.4034 264.426 33.8061 251.936 37.8965Z" fill="#1E1C26"/>
<path d="M198.866 41.4274C203.68 47.2567 215.225 54.06 220.198 51.0662C226.839 41.5447 216.564 25.7883 213.726 22.1817C210.387 17.9368 196.378 10.4406 193.361 13.4682C189.062 17.7823 190.498 31.2931 198.866 41.4274Z" fill="#1E1C26"/>
<path d="M254.491 73.5539C247.455 73.8882 234.841 79.4042 234.296 84.785C237.688 95.055 252.23 96.998 256.504 96.8963C261.534 96.7766 278.236 96.7534 278.236 86.4324C278.236 80.7581 266.722 72.9727 254.491 73.5539Z" fill="#1E1C26"/>
<path d="M251.693 99.4316C245.583 95.9285 231.982 93.7922 228.628 98.0349C225.962 108.517 237.175 117.977 240.832 120.191C245.137 122.797 259.229 131.762 264.782 123.062C267.834 118.279 262.317 105.522 251.693 99.4316Z" fill="#1E1C26"/>
<path d="M196.135 78.7858C203.146 79.466 218.27 80.7978 220.062 73.4808C218.181 62.83 205.209 59.9814 200.965 59.4678C195.969 58.8633 186.073 61.4798 177.622 59.4678C176.166 64.952 183.947 77.6032 196.135 78.7858Z" fill="#1E1C26"/>
<path d="M349.989 269.986L431.286 222.898L312.158 154.882C287.205 170.176 235.222 202.371 226.031 207.202C211.482 214.849 223.635 221.416 226.031 222.898C227.983 224.105 300.541 266.749 318.195 275.62C330.208 281.657 340.269 275.62 349.989 269.986Z" fill="black"/>
<path d="M399.504 217.542C399.101 216.737 394.521 204.385 393.43 201.329C394.434 200.282 402.422 200.981 402.99 201.68C403.557 202.378 404.611 216.407 404.087 217.761C403.611 218.991 400.246 219.026 399.504 217.542Z" fill="#141319"/>
<path d="M315.317 263.949C315.099 263.076 313.305 250.025 312.902 246.805C314.11 246 321.757 248.415 322.159 249.22C322.562 250.025 320.549 263.949 319.744 265.156C319.012 266.254 315.72 265.559 315.317 263.949Z" fill="#141319"/>
<path d="M234.02 213.239C233.802 212.366 232.008 199.315 231.605 196.095C232.813 195.29 240.46 197.705 240.862 198.51C241.265 199.315 239.252 213.239 238.447 214.446C237.715 215.544 234.423 214.849 234.02 213.239Z" fill="#141319"/>
<path d="M322.159 101.239L229.288 157.879L229.996 196.219C229.996 199.439 290.365 233.246 320.549 249.747L393.395 156.376L322.159 101.239Z" fill="#141319"/>
<path d="M325.781 79.7922L303.243 155.052L380.918 198.634C388.565 179.718 406.128 132.481 407.883 127.801C411.354 118.544 407.883 116.613 403.054 113.715C393.395 107.92 346.065 81.196 340.27 78.2984C330.673 73.5005 327.698 77.3273 325.818 79.7453L325.781 79.7922Z" fill="#141319"/>
<path d="M324.171 81.402L297.609 153.442L373.272 195.701C380.918 176.785 398.481 130.755 400.236 126.075C403.708 116.818 400.236 114.887 395.407 111.989C378.638 101.927 343.651 81.0798 337.855 78.1822C328.196 73.3531 326.05 78.9872 324.171 81.402Z" fill="#2F2C3A"/>
<path d="M241.667 165.632C241.667 155.879 229.191 154.879 229.191 158.388V195.415C229.191 196.219 229.432 198.393 230.398 200.647C231.605 203.464 318.939 250.668 320.549 250.668C320.549 238.058 320.788 212.454 320.788 209.879C320.788 203.379 312.288 195.879 304.788 201.379V222.879L241.667 183.341V165.632Z" fill="#2F2C3A"/>
<path d="M320.549 250.668L327.788 202.879C327.788 202.879 322.566 200.601 320.788 198.379C319.178 196.366 316.288 195.879 314.211 195.267C339.163 181.717 388.505 151.721 394.3 148.179C400.096 144.637 407.85 150.862 409.191 153.814C409.728 165.217 409.191 189.713 409.191 193.255C409.191 196.796 406.777 199.828 405.569 200.901L320.549 250.668Z" fill="#141319"/>
<path d="M403.962 292.344L451.9 268.537C453.155 267.914 453.397 266.228 452.368 265.277L423.462 238.558C422.84 237.983 421.923 237.862 421.174 238.256L368.917 265.714C367.588 266.412 367.474 268.271 368.707 269.127L401.932 292.196C402.531 292.612 403.309 292.669 403.962 292.344Z" fill="black"/>
<path d="M433.185 270.153C433.185 269.509 431.307 239.834 430.368 225.077L423.929 227.492C425.807 241.31 429.724 269.187 430.368 270.153C431.173 271.36 433.185 270.958 433.185 270.153Z" fill="#141319"/>
<path d="M404.208 286.654C404.208 286.01 405.952 252.713 405.013 237.956L398.171 238.761C398.574 247.213 400.747 285.688 401.391 286.654C402.196 287.861 404.208 287.459 404.208 286.654Z" fill="#141319"/>
<path d="M374.829 269.348C374.829 268.704 378.451 240.773 380.062 222.663L373.22 223.467C372.414 233.931 371.368 268.382 372.012 269.348C372.816 270.555 374.829 270.153 374.829 269.348Z" fill="#141319"/>
<path d="M369.999 222.26V218.638L432.783 220.65V223.87L402.196 241.578L369.999 222.26Z" fill="#2F2C3A"/>
<path d="M433.588 223.87L402.196 241.578V238.359L433.588 220.65V223.87Z" fill="#09080B"/>
<path d="M369.999 218.638L400.586 200.93L433.588 220.65L402.196 238.359L369.999 218.638Z" fill="#1E1C26"/>
<path d="M432.38 213.808L415.075 224.272L395.757 211.394L415.075 202.54L432.38 213.808Z" fill="black"/>
<path d="M398.171 175.172C399.784 180.002 396.564 187.246 399.784 196.503" stroke="#464156" stroke-width="2" stroke-linecap="round"/>
<path d="M418.294 219.443C418.294 223.888 411.988 227.492 404.208 227.492C396.429 227.492 390.122 223.888 390.122 219.443C389.72 212.199 396.429 211.394 404.208 211.394C416.282 211.394 418.294 214.211 418.294 219.443Z" fill="#09080B"/>
<ellipse cx="404.208" cy="217.833" rx="14.0861" ry="8.04921" fill="#1E1C26"/>
<path d="M417.087 208.576L404.611 216.626" stroke="black" stroke-width="3" stroke-linecap="round"/>
<path d="M404.611 177.587V216.626" stroke="#09080B" stroke-width="3" stroke-linecap="round"/>
<path fill-rule="evenodd" clip-rule="evenodd" d="M415.852 153.003C415.432 149.65 410.199 147 403.806 147C397.462 147 392.261 149.609 391.77 152.925C391.756 152.962 391.744 152.999 391.732 153.037C391.045 155.099 388.01 168.898 387.138 172.887C387.04 173.192 386.971 173.503 386.935 173.818C386.913 173.914 386.902 173.965 386.902 173.965C386.905 174.004 386.908 174.042 386.911 174.081C386.905 174.176 386.902 174.271 386.902 174.367C386.902 179.257 394.47 183.221 403.806 183.221C413.141 183.221 420.709 179.257 420.709 174.367C420.709 174.253 420.705 174.14 420.697 174.027C420.701 174.006 420.705 173.985 420.709 173.965C420.709 173.965 420.699 173.923 420.68 173.842C420.636 173.451 420.544 173.066 420.406 172.691C419.455 168.681 416.55 156.39 415.88 153.037C415.872 153.026 415.863 153.015 415.852 153.003Z" fill="#1E1C26"/>
<ellipse cx="403.806" cy="153.439" rx="8.85413" ry="4.82953" fill="#141319"/>
<path d="M181.023 234.137C176.962 237.251 178.382 240.965 179.766 243.843C183.846 250.799 196.659 252.202 204.999 251C208.999 250 217.443 250.288 215.513 244.497C213.582 238.706 196.774 230.8 195.135 230.585C193.005 229.839 185.083 231.022 181.023 234.137Z" fill="#FED4C7"/>
<path d="M304.607 174.366L263.522 179.816" stroke="#2F2C3A" stroke-width="21" stroke-linecap="round" stroke-linejoin="round"/>
<path d="M207.345 236.831L244.671 185.754C246.27 183.566 248.688 182.121 251.371 181.749L258.492 180.761" stroke="#F37C5E" stroke-width="19" stroke-linecap="round" stroke-linejoin="round"/>
<mask id="mask0_8_1532" style="mask-type:alpha" maskUnits="userSpaceOnUse" x="197" y="197" width="42" height="50">
<path d="M207.345 236.831L229.403 206.646" stroke="#F37D5D" stroke-width="19" stroke-linecap="round" stroke-linejoin="round"/>
</mask>
<g mask="url(#mask0_8_1532)">
<path d="M216.149 205.841L198.122 229.737C198.122 236.11 210.699 241.336 216.568 243.153C221.32 236.305 232.164 221.772 234.176 218.418C233.757 217.161 231.474 212.548 227.887 209.614C223.276 205.84 219.084 205.701 216.149 205.841Z" fill="white"/>
<path d="M212.376 210.872L198.122 229.728C198.122 236.101 210.699 241.327 216.568 243.144C221.319 236.296 228.39 227.221 230.403 223.868C229.983 222.61 227.701 217.579 224.114 214.644C219.503 210.871 215.31 210.732 212.376 210.872Z" fill="#712973"/>
<path d="M210.699 212.967L198.122 229.719C198.122 236.092 210.699 241.318 216.568 243.135C221.319 236.287 227.133 229.318 229.145 225.964C228.726 224.706 226.024 219.675 222.437 216.74C217.826 212.967 213.633 212.828 210.699 212.967Z" fill="white"/>
<path d="M208.183 216.322L198.122 229.714C198.122 236.086 210.699 241.312 216.568 243.129C221.319 236.281 225.037 232.252 227.049 228.898C226.63 227.641 223.299 222.752 219.503 220.095C215.31 217.16 211.118 216.182 208.183 216.322Z" fill="#712973"/>
<path d="M206.926 218.418L198.122 229.712C198.122 236.084 210.699 241.311 216.568 243.127C221.319 236.28 222.94 234.349 224.953 230.995C224.533 229.737 221.178 225.303 217.407 222.61C214.472 220.514 209.86 218.278 206.926 218.418Z" fill="white"/>
<path d="M200.414 247.709C206.814 248.509 213.499 247 214.999 242.5C215.999 231.5 199.914 238.209 196.414 237.709C192.914 237.209 192.414 246.709 200.414 247.709Z" fill="white"/>
</g>
<path d="M182.68 232.497C178.619 235.611 180.04 239.326 181.424 242.203C185.503 249.16 196.466 250.361 204.806 249.159C209.249 235.538 198.924 229.693 196.793 228.946C194.662 228.199 186.741 229.383 182.68 232.497Z" fill="#FF63AE"/>
<ellipse cx="5.50865" cy="4.59054" rx="5.50865" ry="4.59054" transform="matrix(0.999961 0.0088836 -0.0612053 0.998125 184.859 231.563)" fill="white"/>
<ellipse cx="1.24191" cy="1.03492" rx="1.24191" ry="1.03492" transform="matrix(0.999961 0.0088836 0.0612053 -0.998125 193.458 239.922)" fill="#141319"/>
<ellipse cx="1.24191" cy="1.03492" rx="1.24191" ry="1.03492" transform="matrix(0.999961 0.0088836 0.0612053 -0.998125 185.592 231.913)" fill="#141319"/>
<path d="M187.938 237.037C186.115 236.006 187.346 232.949 189.01 234.885C192.009 235.019 190.177 238.301 187.938 237.037Z" fill="#F7047C"/>
<path d="M197.086 233.081L197.31 233.57L197.842 233.653C199.554 233.919 201.137 232.99 202.394 231.774C203.679 230.531 204.814 228.812 205.679 227.043C206.545 225.273 207.175 223.383 207.407 221.761C207.522 220.953 207.544 220.165 207.419 219.472C207.294 218.787 207.002 218.083 206.386 217.617L205.798 218.394L206.386 217.617C205.734 217.124 204.977 217.089 204.299 217.287C203.654 217.475 203.033 217.882 202.468 218.369C201.331 219.349 200.18 220.868 199.214 222.547C198.243 224.234 197.418 226.153 196.973 227.975C196.536 229.758 196.42 231.624 197.086 233.081Z" fill="#FFBBDC" stroke="#FF63AE" stroke-width="2"/>
<path d="M200.89 235.531L200.866 236.069L201.301 236.385C202.704 237.403 204.536 237.298 206.21 236.789C207.92 236.268 209.714 235.256 211.29 234.076C212.868 232.896 214.291 231.501 215.236 230.163C215.707 229.497 216.087 228.805 216.291 228.132C216.492 227.465 216.553 226.705 216.218 226.01C215.862 225.274 215.204 224.897 214.511 224.764C213.851 224.638 213.112 224.716 212.388 224.892C210.929 225.246 209.212 226.073 207.586 227.127C205.953 228.186 204.344 229.517 203.117 230.935C201.915 232.323 200.961 233.931 200.89 235.531Z" fill="#FFBBDC" stroke="#FF63AE" stroke-width="2"/>
<path d="M204.36 273.079C201.12 277.039 203.352 280.33 205.358 282.815C210.92 288.653 224.155 287.078 231.999 284C236.287 282.317 243.51 280.47 240.306 275.275C237.102 270.079 218.931 266.228 217.287 266.393C215.042 266.154 207.601 269.118 204.36 273.079Z" fill="#FED4C7"/>
<path d="M318.861 183.589L294.964 199.31" stroke="#433F51" stroke-width="21" stroke-linecap="round" stroke-linejoin="round"/>
<path d="M230.822 268.693L267.928 219.218C270.006 216.448 272.547 214.058 275.44 212.155L290.772 202.068" stroke="#F37C5E" stroke-width="19" stroke-linecap="round" stroke-linejoin="round"/>
<path d="M230.822 268.693L242.456 253.181" stroke="white" stroke-width="19" stroke-linecap="round" stroke-linejoin="round"/>
<path d="M234.499 277.5C226.953 281.692 193.999 290 226.499 262.5C231.999 261.5 238.499 273 234.499 277.5Z" fill="white"/>
<mask id="mask1_8_1532" style="mask-type:alpha" maskUnits="userSpaceOnUse" x="221" y="229" width="42" height="50">
<path d="M230.822 268.693L253.46 238.508" stroke="#F37D5D" stroke-width="19" stroke-linecap="round" stroke-linejoin="round"/>
</mask>
<g mask="url(#mask1_8_1532)">
<path d="M242.98 233.897L224.953 257.793C224.953 264.166 237.53 269.392 243.399 271.209C248.15 264.361 258.994 249.828 261.007 246.474C260.588 245.217 258.305 240.604 254.718 237.67C250.107 233.896 245.914 233.757 242.98 233.897Z" fill="white"/>
<path d="M239.207 238.928L224.953 257.785C224.953 264.157 237.53 269.383 243.399 271.2C248.15 264.352 255.222 255.278 257.234 251.924C256.815 250.666 254.532 245.635 250.945 242.701C246.334 238.927 242.141 238.788 239.207 238.928Z" fill="#712973"/>
<path d="M237.53 241.024L224.953 257.775C224.953 264.148 237.53 269.374 243.399 271.191C248.15 264.343 253.964 257.374 255.976 254.02C255.557 252.762 252.855 247.731 249.268 244.796C244.657 241.023 240.465 240.884 237.53 241.024Z" fill="white"/>
<path d="M235.015 244.378L224.953 257.77C224.953 264.142 237.53 269.368 243.399 271.185C248.15 264.338 251.868 260.308 253.88 256.955C253.461 255.697 250.13 250.808 246.334 248.151C242.141 245.216 237.949 244.238 235.015 244.378Z" fill="#712973"/>
<path d="M233.757 246.474L223.499 258.5C223.499 264.873 236.63 270.184 242.499 272C247.25 265.153 248.487 261.354 250.499 258C250.08 256.742 248.009 253.359 244.238 250.666C241.303 248.57 236.691 246.334 233.757 246.474Z" fill="white"/>
</g>
<path d="M205.599 271.104C202.358 275.064 204.591 278.356 206.596 280.84C212.159 286.679 223.105 285.341 230.949 282.263C232.158 267.986 220.77 264.658 218.525 264.418C216.28 264.179 208.84 267.143 205.599 271.104Z" fill="#FF63AE"/>
<ellipse cx="5.50865" cy="4.59054" rx="5.50865" ry="4.59054" transform="matrix(0.975479 -0.220093 0.168739 0.985661 207.506 269.696)" fill="white"/>
<ellipse cx="1.24191" cy="1.03492" rx="1.24191" ry="1.03492" transform="matrix(0.975479 -0.220093 -0.168739 -0.985661 217.789 275.866)" fill="#141319"/>
<ellipse cx="1.24191" cy="1.03492" rx="1.24191" ry="1.03492" transform="matrix(0.975479 -0.220093 -0.168739 -0.985661 208.3 269.869)" fill="#141319"/>
<path d="M211.756 274.32C209.746 273.734 210.244 270.476 212.307 271.981C215.258 271.424 214.224 275.039 211.756 274.32Z" fill="#F7047C"/>
<path d="M221.183 269.093L221.513 269.518L222.05 269.477C223.658 269.353 224.92 268.244 225.842 266.919C226.779 265.572 227.49 263.83 227.966 262.06C228.514 260.02 228.773 257.852 228.666 256.063C228.613 255.172 228.467 254.325 228.187 253.621C227.911 252.928 227.453 252.246 226.699 251.912L226.294 252.826L226.699 251.912C225.925 251.569 225.156 251.731 224.532 252.102C223.936 252.457 223.415 253.026 222.968 253.665C222.066 254.952 221.282 256.789 220.735 258.729C220.221 260.552 219.898 262.534 219.904 264.336C219.91 266.103 220.233 267.867 221.183 269.093Z" fill="#FFBBDC" stroke="#FF63AE" stroke-width="2"/>
<path d="M236.763 257.117L235.986 257.746L236.763 257.117C236.206 256.429 235.409 256.238 234.66 256.305C233.943 256.369 233.189 256.669 232.469 257.07C231.017 257.877 229.413 259.258 228.009 260.835C226.798 262.196 225.694 263.75 224.944 265.288C224.208 266.798 223.745 268.433 224.02 269.892L224.119 270.421L224.616 270.629C226.381 271.369 228.345 270.66 229.987 269.59C231.68 268.487 233.317 266.823 234.601 265.097C235.636 263.707 236.481 262.224 236.943 260.893C237.173 260.228 237.322 259.56 237.328 258.935C237.334 258.312 237.197 257.653 236.763 257.117Z" fill="#FFBBDC" stroke="#FF63AE" stroke-width="2"/>
<circle cx="309.219" cy="173.527" r="18.027" fill="#433F51"/>
<path d="M347.788 137.892C346.782 135.88 323.892 127.272 312.572 123.219C310.476 145.439 302.092 155.081 295.384 160.531C306.284 160.95 327.665 181.493 327.665 191.973C339.823 180.235 347.788 147.535 347.788 137.892Z" fill="white"/>
<path d="M317.184 132.862L288.602 130.172C283.964 129.735 279.288 130.385 274.945 132.069L261.007 137.473" stroke="#F37C5E" stroke-width="19" stroke-linecap="round" stroke-linejoin="round"/>
<path d="M317.184 132.862L303.349 131.56" stroke="white" stroke-width="19" stroke-linecap="round" stroke-linejoin="round"/>
<path d="M339.106 141.666L347.91 153.404" stroke="white" stroke-width="19" stroke-linecap="round" stroke-linejoin="round"/>
<path d="M349.587 155.919L360.487 170.173L338.247 185" stroke="#F37C5E" stroke-width="19" stroke-linecap="round" stroke-linejoin="round"/>
<path d="M320.999 208.5C320.999 209 345.499 191.5 345.499 191.5L327.499 185C327.499 185 302.999 201 304.999 201C307.499 198.628 320.999 203 320.999 208.5Z" fill="#141319"/>
<path d="M304.999 222.5V201C307.499 197 320.999 202 320.999 207.5V208.5L304.999 222.5Z" fill="#2F2C3A"/>
<path d="M340.088 199.239C341.999 201 344.999 199.5 343.497 197.235C344.999 198.597 349.739 197.235 345.499 191.597C346.999 190.597 352.499 187.097 352.999 186.597C352.999 182.097 335.21 176.166 333.499 177.098C328.499 180.098 321.999 185.597 321.999 189.097C327.499 187.597 335.999 195.5 335.316 200.24C336.499 203 341.499 202 340.088 199.239Z" fill="#F37C5E"/>
<path d="M246.581 140.202C246.58 138 250.499 139.5 247.999 136.5C246.999 134.5 249.184 131.122 250.499 132C251.999 133 252.999 130.5 257.999 128.5C262.999 126.5 275.499 145.238 259.499 148.5C248.757 150.69 246.581 143.564 246.581 140.202Z" fill="#F37C5E"/>
<path fill-rule="evenodd" clip-rule="evenodd" d="M259.187 146.168L246.864 138.243L220.138 141.186L220.325 141.311L219.999 141.27V143.54L232.107 151.486L259.35 148.081V146.273L259.35 146.273L259.35 146.273V146.189L259.187 146.168Z" fill="#070608"/>
<path d="M244.594 138.621L257.08 146.189L232.486 149.216L219.999 141.27L244.594 138.621Z" fill="#2F2C3A"/>
<path d="M225.202 143.625L223.072 142.11L223.072 141.294L230.064 142.355L230.065 143.171L225.202 143.625Z" fill="#010102"/>
<path d="M225.203 142.808L223.073 141.294L227.934 140.84L230.065 142.355L225.203 142.808Z" fill="#433F51"/>
<path d="M231.016 142.397L228.886 140.883L228.886 140.066L235.878 141.128L235.878 141.944L231.016 142.397Z" fill="#010102"/>
<path d="M231.017 141.581L228.887 140.066L233.748 139.613L235.878 141.128L231.017 141.581Z" fill="#433F51"/>
<path d="M236.731 141.581L234.601 140.066L234.601 139.25L241.593 140.311L241.593 141.128L236.731 141.581Z" fill="#010102"/>
<path d="M236.731 140.765L234.601 139.25L239.463 138.797L241.593 140.311L236.731 140.765Z" fill="#433F51"/>
<path d="M242.446 140.765L240.316 139.25L240.315 138.434L247.308 139.495L247.308 140.311L242.446 140.765Z" fill="#010102"/>
<path d="M242.446 139.948L240.316 138.434L245.178 137.98L247.308 139.495L242.446 139.948Z" fill="#433F51"/>
<path d="M228.567 145.663L226.437 144.148L226.437 143.332L233.429 144.393L233.429 145.209L228.567 145.663Z" fill="#010102"/>
<path d="M228.568 144.846L226.438 143.332L231.299 142.878L233.429 144.393L228.568 144.846Z" fill="#433F51"/>
<path d="M234.381 144.436L232.251 142.921L232.251 142.105L239.243 143.166L239.243 143.982L234.381 144.436Z" fill="#010102"/>
<path d="M234.381 143.619L232.251 142.105L237.113 141.651L239.243 143.166L234.381 143.619Z" fill="#433F51"/>
<path d="M240.096 143.619L237.965 142.105L237.965 141.288L244.958 142.35L244.958 143.166L240.096 143.619Z" fill="#010102"/>
<path d="M240.096 142.803L237.966 141.288L242.828 140.835L244.958 142.35L240.096 142.803Z" fill="#433F51"/>
<path d="M245.81 142.803L243.68 141.288L243.68 140.472L250.672 141.533L250.673 142.35L245.81 142.803Z" fill="#010102"/>
<path d="M245.811 141.987L243.681 140.472L248.542 140.019L250.672 141.533L245.811 141.987Z" fill="#433F51"/>
<path d="M231.833 148.112L229.703 146.597L229.703 145.781L236.695 146.842L236.695 147.659L231.833 148.112Z" fill="#010102"/>
<path d="M231.833 147.296L229.703 145.781L234.565 145.328L236.695 146.842L231.833 147.296Z" fill="#433F51"/>
<path d="M237.647 146.885L235.517 145.37L235.516 144.554L242.509 145.615L242.509 146.431L237.647 146.885Z" fill="#010102"/>
<path d="M237.647 146.068L235.517 144.554L240.379 144.1L242.509 145.615L237.647 146.068Z" fill="#433F51"/>
<path d="M243.361 146.069L241.231 144.554L241.231 143.738L248.223 144.799L248.223 145.615L243.361 146.069Z" fill="#010102"/>
<path d="M243.362 145.252L241.231 143.738L246.093 143.284L248.223 144.799L243.362 145.252Z" fill="#433F51"/>
<path d="M249.076 145.252L246.946 143.738L246.946 142.921L253.938 143.983L253.938 144.799L249.076 145.252Z" fill="#010102"/>
<path d="M249.076 144.436L246.946 142.921L251.808 142.468L253.938 143.983L249.076 144.436Z" fill="#433F51"/>
<circle cx="226.053" cy="146.189" r="0.756757" fill="#F7047C"/>
<ellipse cx="244.648" cy="150.5" rx="3" ry="2.5" fill="#F37C5E"/>
<circle cx="248.148" cy="149.5" r="2.5" fill="#F37C5E"/>
<circle cx="252.148" cy="148.5" r="2.5" fill="#F37C5E"/>
<path d="M250.499 135.5C249.999 134 246.499 132 243.499 133" stroke="#F37C5E" stroke-width="5" stroke-linecap="round"/>
<path d="M320.672 144.309C317.318 142.632 319.414 130.475 320.672 126.282C329.057 125.723 344.82 126.702 340.795 135.086C335.765 145.567 324.026 145.986 320.672 144.309Z" fill="#F37C5E"/>
<circle cx="330.18" cy="117.35" r="16.3501" fill="#F37C5E"/>
<path fill-rule="evenodd" clip-rule="evenodd" d="M314.481 121.932C314.547 121.926 314.61 121.935 314.669 121.962C315.863 122.494 317.102 124.082 318.363 125.698C319.562 127.235 320.781 128.797 321.999 129.5C329.783 133.992 334.499 132.5 339.403 126.992C340.892 125.689 341.886 126.618 342.346 128.273C339.353 131.605 335.011 133.7 330.18 133.7C322.741 133.7 316.462 128.732 314.481 121.932Z" fill="#868686" fill-opacity="0.26" style="mix-blend-mode:plus-darker"/>
<path fill-rule="evenodd" clip-rule="evenodd" d="M317.081 108.994C317.441 108.338 317.604 108.043 317.604 108.965C317.604 115.254 332.696 120.704 341.5 119.027C341.367 119.36 341.202 119.756 341.021 120.192C340.059 122.502 338.632 125.934 338.984 126.992C339.461 127.469 341.502 127.103 343.922 126.214C345.573 123.66 346.531 120.617 346.531 117.35C346.531 108.32 339.211 101 330.181 101C323.25 101 317.326 105.313 314.946 111.402C315.967 111.02 316.659 109.761 317.081 108.994Z" fill="#141319"/>
<path d="M345.273 123.639C344.015 122.8 341.499 126.573 341.08 127.831C341.08 130.346 345.37 130.015 346.111 129.089C347.788 126.992 346.949 124.756 345.273 123.639Z" fill="#F37C5E"/>
<circle cx="318.861" cy="120.285" r="0.838464" fill="black"/>
<circle cx="323.053" cy="122.8" r="0.838464" fill="black"/>
<path d="M342.338 108.127C342.617 106.869 343.428 104.186 344.434 103.515" stroke="#141319" stroke-width="3" stroke-linecap="round"/>
<path d="M344.015 108.965C344.294 107.708 346.53 107.288 348.207 107.288" stroke="#141319" stroke-width="3" stroke-linecap="round"/>
<path d="M318.442 124.058C317.603 124.058 315.088 127.412 315.088 127.412" stroke="#F37C5E" stroke-width="5" stroke-linecap="round"/>
<path d="M160.996 397.192L199.847 372.635C201.112 371.836 201.083 369.981 199.793 369.221L74.5956 295.507C73.8905 295.091 73.0036 295.148 72.3565 295.649L38.3174 322.001C37.2033 322.864 37.3065 324.577 38.5161 325.3L158.902 397.219C159.549 397.605 160.359 397.595 160.996 397.192Z" fill="black"/>
<path d="M50.085 328.626L54.5121 316.552L48.4754 312.93C48.4757 318.967 45.8994 327.016 46.8653 328.626C47.8312 330.236 49.2798 330.236 50.085 328.626Z" fill="#141319"/>
<path d="M157.14 390.202L158.75 374.909L151.103 372.091C152.093 379.738 152.954 388.592 153.92 390.202C154.886 391.812 156.335 391.812 157.14 390.202Z" fill="#141319"/>
<path d="M191.349 370.884V355.188L184.507 357.2C185.714 360.42 186.519 367.664 187.324 372.091C187.66 373.938 191.349 374.909 191.349 370.884Z" fill="#141319"/>
<path d="M83.4894 269.062L46.463 290.794L156.737 354.383L192.556 332.248L83.4894 269.062Z" fill="#1E1C26"/>
<path d="M46.4631 313.149V290.794L156.737 354.383V376.518L46.4631 313.149Z" fill="black"/>
<path d="M156.737 354.383L192.556 332.248V355.188L156.737 376.921V354.383Z" fill="#18161E"/>
<path d="M415.116 315.746H188.129L85.5011 178.91C85.5011 178.91 175.652 32.0126 177.262 30C296.777 41.9131 445.777 212.413 415.116 315.746Z" fill="url(#paint1_linear_8_1532)"/>
<path d="M85.5014 178.91L189.336 238.072L188.531 315.344L182.494 321.381L81.0743 182.533L85.5014 178.91Z" fill="#2F2C3A"/>
<path d="M95.5628 307.295V303.271L154.724 320.576V325.004L140.638 332.65L95.5628 307.295Z" fill="#010101"/>
<path d="M109.649 296.026L95.5628 303.271L140.638 328.626L154.724 320.576L109.649 296.026Z" fill="#2F2C3A"/>
<path d="M138.224 295.221V317.357L134.199 318.967V292.002L138.224 295.221Z" fill="#2F2C3A"/>
<path d="M115.686 307.698V275.098L134.601 284.355V318.564L115.686 307.698Z" fill="#141319"/>
<path d="M81.0742 182.533L182.897 240.889V321.381L81.0742 264.232V182.533Z" fill="#141319"/>
<defs>
<linearGradient id="paint0_linear_8_1532" x1="137.641" y1="347.323" x2="328.407" y2="219.341" gradientUnits="userSpaceOnUse">
<stop stop-color="#1E1C26" stop-opacity="0.47"/>
<stop offset="1" stop-color="#1E1C26" stop-opacity="0.4"/>
</linearGradient>
<linearGradient id="paint1_linear_8_1532" x1="40.9712" y1="327" x2="257.754" y2="195.009" gradientUnits="userSpaceOnUse">
<stop stop-color="#E0D8FF" stop-opacity="0.32"/>
<stop offset="1" stop-color="#DACEFF" stop-opacity="0"/>
</linearGradient>
</defs>
</svg>
