<svg width="68" height="68" viewBox="0 0 68 68" fill="none" xmlns="http://www.w3.org/2000/svg">
<rect x="1" y="1" width="66" height="66" rx="33" fill="white" fill-opacity="0.1"/>
<rect x="1" y="1" width="66" height="66" rx="33" stroke="white" stroke-width="2"/>
<path d="M38.2375 20.6676C35.85 20.0109 33.3563 21.3423 32.675 23.6436L32.3188 24.8485C32.0875 25.6316 31.6688 26.3546 31.1 26.957L27.8938 30.3547C27.3375 30.9451 27.3812 31.8608 27.9937 32.397C28.6062 32.9331 29.5563 32.891 30.1125 32.3006L33.3188 28.9029C34.2 27.9691 34.8438 26.8546 35.2 25.6437L35.5562 24.4388C35.7812 23.6737 36.6125 23.2279 37.4125 23.4448C38.2125 23.6617 38.6688 24.4629 38.4438 25.234L38.0875 26.4389C37.7312 27.6377 37.1687 28.7703 36.425 29.7824C36.1 30.2222 36.0625 30.8005 36.3188 31.2825C36.575 31.7644 37.0875 32.0656 37.65 32.0656H46C46.55 32.0656 47 32.4994 47 33.0295C47 33.4392 46.7313 33.7946 46.35 33.9332C45.8875 34.1019 45.5375 34.4754 45.4188 34.9392C45.3 35.4031 45.425 35.8911 45.75 36.2465C45.9062 36.4152 46 36.6381 46 36.8851C46 37.355 45.65 37.7466 45.1875 37.8309C44.675 37.9273 44.2438 38.2707 44.0625 38.7466C43.8812 39.2226 43.9625 39.7527 44.2875 40.1503C44.4188 40.313 44.5 40.5178 44.5 40.7467C44.5 41.1503 44.2375 41.5058 43.8625 41.6443C43.1437 41.9154 42.7562 42.6625 42.9625 43.3793C42.9875 43.4577 43 43.548 43 43.6384C43 44.1685 42.55 44.6023 42 44.6023H35.9062C35.1187 44.6023 34.3438 44.3794 33.6875 43.9577L29.8313 41.4817C29.1438 41.0359 28.2125 41.2166 27.75 41.8853C27.2875 42.554 27.475 43.4456 28.1687 43.8914L32.025 46.3674C33.175 47.1084 34.525 47.5 35.9062 47.5H42C44.1688 47.5 45.9312 45.8373 46 43.7649C46.9125 43.0601 47.5 41.9757 47.5 40.7527C47.5 40.4816 47.4688 40.2226 47.4188 39.9696C48.3813 39.2647 49 38.1502 49 36.8972C49 36.5056 48.9375 36.126 48.825 35.7706C49.55 35.0597 50 34.0958 50 33.0295C50 30.9029 48.2125 29.1739 46 29.1739H40.2313C40.525 28.5474 40.775 27.8968 40.9688 27.2341L41.325 26.0292C42.0063 23.7279 40.625 21.3242 38.2375 20.6676ZM20 30.1378C18.8937 30.1378 18 30.9993 18 32.0656V45.5602C18 46.6265 18.8937 47.488 20 47.488H24C25.1063 47.488 26 46.6265 26 45.5602V32.0656C26 30.9993 25.1063 30.1378 24 30.1378H20Z" fill="white"/>
</svg>
