<svg width="45" height="18" viewBox="0 0 45 18" fill="none" xmlns="http://www.w3.org/2000/svg">
<rect x="0.5" y="0.5" width="44" height="17" rx="2.5" stroke="white" stroke-opacity="0.7" stroke-linejoin="round"/>
<path d="M10.377 4.46875V13H8.91797V4.46875H10.377ZM13.0547 4.46875V5.64062H6.26367V4.46875H13.0547ZM17.1973 11.4414L19.4414 4.46875H21.0645L18.0059 13H16.9102L17.1973 11.4414ZM15.123 4.46875L17.3496 11.4414L17.6543 13H16.5527L13.5059 4.46875H15.123ZM24.2402 8.79297V9.91797H21.1406V8.79297H24.2402ZM29.25 4.43945V13H27.8379V6.11523L25.7461 6.82422V5.6582L29.0801 4.43945H29.25ZM38.0918 9.95898V11.084H31.9395L31.8926 10.2344L35.5723 4.46875H36.7031L35.4785 6.56641L33.3633 9.95898H38.0918ZM37.0254 4.46875V13H35.6133V4.46875H37.0254Z" fill="white"/>
</svg>
